<svg width="17" height="18" viewBox="0 0 17 18" fill="none" xmlns="http://www.w3.org/2000/svg">
<g clip-path="url(#clip0_1552_183472)">
<path d="M17 9C17 4.30561 13.1944 0.5 8.5 0.5C3.80561 0.5 0 4.30561 0 9C0 13.2426 3.10834 16.7591 7.17188 17.3967V11.457H5.01367V9H7.17188V7.12735C7.17188 4.99703 8.4409 3.82031 10.3825 3.82031C11.3124 3.82031 12.2852 3.98633 12.2852 3.98633V6.07813H11.2134C10.1574 6.07813 9.82812 6.73336 9.82812 7.40559V9H12.1855L11.8087 11.457H9.82812V17.3967C13.8917 16.7591 17 13.2426 17 9Z" fill="#1877F2"/>
<path d="M11.8087 11.457L12.1855 9H9.82812V7.40559C9.82812 6.73329 10.1574 6.07812 11.2134 6.07812H12.2852V3.98633C12.2852 3.98633 11.3124 3.82031 10.3824 3.82031C8.4409 3.82031 7.17188 4.99703 7.17188 7.12734V9H5.01367V11.457H7.17188V17.3967C7.61123 17.4656 8.05528 17.5001 8.5 17.5C8.94472 17.5001 9.38877 17.4656 9.82812 17.3967V11.457H11.8087Z" fill="white"/>
</g>
<defs>
<clipPath id="clip0_1552_183472">
<rect width="17" height="17" fill="white" transform="translate(0 0.5)"/>
</clipPath>
</defs>
</svg>
