<svg width="17" height="18" viewBox="0 0 17 18" fill="none" xmlns="http://www.w3.org/2000/svg">
<g clip-path="url(#clip0_1552_183475)">
<path d="M13.0156 0.5H3.98438C1.78387 0.5 0 2.28387 0 4.48438V13.5156C0 15.7161 1.78387 17.5 3.98438 17.5H13.0156C15.2161 17.5 17 15.7161 17 13.5156V4.48438C17 2.28387 15.2161 0.5 13.0156 0.5Z" fill="url(#paint0_radial_1552_183475)"/>
<path d="M13.0156 0.5H3.98438C1.78387 0.5 0 2.28387 0 4.48438V13.5156C0 15.7161 1.78387 17.5 3.98438 17.5H13.0156C15.2161 17.5 17 15.7161 17 13.5156V4.48438C17 2.28387 15.2161 0.5 13.0156 0.5Z" fill="url(#paint1_radial_1552_183475)"/>
<path d="M8.5006 2.35938C6.69714 2.35938 6.47076 2.36728 5.76247 2.39948C5.05551 2.43189 4.57293 2.54379 4.15072 2.70801C3.7139 2.87761 3.34342 3.10452 2.97434 3.47374C2.60492 3.84289 2.37801 4.21337 2.20788 4.64999C2.04319 5.07234 1.93116 5.55511 1.89935 6.26174C1.86768 6.97009 1.85938 7.19654 1.85938 9.00007C1.85938 10.8036 1.86734 11.0292 1.89948 11.7375C1.93202 12.4445 2.04392 12.9271 2.20801 13.3493C2.37774 13.7861 2.60465 14.1566 2.97387 14.5257C3.34289 14.8951 3.71337 15.1225 4.14986 15.2921C4.5724 15.4563 5.05504 15.5682 5.76187 15.6006C6.47023 15.6329 6.69641 15.6408 8.4998 15.6408C10.3035 15.6408 10.5291 15.6329 11.2374 15.6006C11.9444 15.5682 12.4275 15.4563 12.85 15.2921C13.2866 15.1225 13.6566 14.8951 14.0255 14.5257C14.3949 14.1566 14.6218 13.7861 14.792 13.3495C14.9552 12.9271 15.0673 12.4444 15.1005 11.7377C15.1323 11.0294 15.1406 10.8036 15.1406 9.00007C15.1406 7.19654 15.1323 6.97023 15.1005 6.26187C15.0673 5.55491 14.9552 5.0724 14.792 4.65019C14.6218 4.21337 14.3949 3.84289 14.0255 3.47374C13.6562 3.10439 13.2868 2.87748 12.8496 2.70807C12.4263 2.54379 11.9434 2.43182 11.2365 2.39948C10.5281 2.36728 10.3026 2.35938 8.49854 2.35938H8.5006ZM7.90487 3.55608C8.08171 3.55582 8.279 3.55608 8.5006 3.55608C10.2737 3.55608 10.4838 3.56246 11.184 3.59427C11.8315 3.62388 12.1829 3.73206 12.417 3.82297C12.7269 3.9433 12.9478 4.0872 13.1801 4.31969C13.4125 4.55211 13.5564 4.77344 13.677 5.08336C13.7679 5.31711 13.8763 5.66853 13.9057 6.31599C13.9375 7.01605 13.9444 7.22629 13.9444 8.99854C13.9444 10.7708 13.9375 10.9811 13.9057 11.6811C13.8761 12.3285 13.7679 12.68 13.677 12.9138C13.5567 13.2237 13.4125 13.4444 13.1801 13.6767C12.9477 13.9091 12.727 14.0529 12.417 14.1733C12.1832 14.2646 11.8315 14.3725 11.184 14.4021C10.484 14.434 10.2737 14.4409 8.5006 14.4409C6.72742 14.4409 6.51724 14.434 5.81725 14.4021C5.16979 14.3723 4.81837 14.2641 4.58409 14.1732C4.27424 14.0528 4.05284 13.9089 3.82042 13.6765C3.588 13.4441 3.44416 13.2233 3.3235 12.9133C3.23259 12.6794 3.12428 12.328 3.0948 11.6806C3.06299 10.9805 3.05661 10.7703 3.05661 8.99688C3.05661 7.22357 3.06299 7.01439 3.0948 6.31433C3.12441 5.66687 3.23259 5.31545 3.3235 5.08137C3.44389 4.77145 3.588 4.55012 3.82048 4.3177C4.05291 4.08527 4.27424 3.94137 4.58416 3.82078C4.81824 3.72947 5.16979 3.62156 5.81725 3.59181C6.42985 3.56412 6.66725 3.55582 7.90487 3.55442V3.55608ZM12.0454 4.65869C11.6054 4.65869 11.2485 5.01529 11.2485 5.4553C11.2485 5.89524 11.6054 6.25218 12.0454 6.25218C12.4853 6.25218 12.8422 5.89524 12.8422 5.4553C12.8422 5.01536 12.4853 4.65843 12.0454 4.65843V4.65869ZM8.5006 5.58977C6.61732 5.58977 5.09037 7.11672 5.09037 9.00007C5.09037 10.8834 6.61732 12.4096 8.5006 12.4096C10.3839 12.4096 11.9104 10.8834 11.9104 9.00007C11.9104 7.11679 10.3838 5.58977 8.50046 5.58977H8.5006ZM8.5006 6.78648C9.72307 6.78648 10.7142 7.77746 10.7142 9.00007C10.7142 10.2225 9.72307 11.2137 8.5006 11.2137C7.27806 11.2137 6.28708 10.2225 6.28708 9.00007C6.28708 7.77746 7.27806 6.78648 8.5006 6.78648Z" fill="white"/>
</g>
<defs>
<radialGradient id="paint0_radial_1552_183475" cx="0" cy="0" r="1" gradientUnits="userSpaceOnUse" gradientTransform="translate(4.51562 18.8093) rotate(-90) scale(16.8483 15.6702)">
<stop stop-color="#FFDD55"/>
<stop offset="0.1" stop-color="#FFDD55"/>
<stop offset="0.5" stop-color="#FF543E"/>
<stop offset="1" stop-color="#C837AB"/>
</radialGradient>
<radialGradient id="paint1_radial_1552_183475" cx="0" cy="0" r="1" gradientUnits="userSpaceOnUse" gradientTransform="translate(-2.84757 1.7246) rotate(78.681) scale(7.53127 31.0441)">
<stop stop-color="#3771C8"/>
<stop offset="0.128" stop-color="#3771C8"/>
<stop offset="1" stop-color="#6600FF" stop-opacity="0"/>
</radialGradient>
<clipPath id="clip0_1552_183475">
<rect width="17" height="17" fill="white" transform="translate(0 0.5)"/>
</clipPath>
</defs>
</svg>
