<svg width="18" height="18" viewBox="0 0 18 18" fill="none" xmlns="http://www.w3.org/2000/svg">
<path d="M9.25297 3.49403L9.2529 3.49389C9.23185 3.44732 9.19705 3.4068 9.15184 3.37794C9.10658 3.34905 9.05315 3.33333 8.99809 3.33333C8.94302 3.33333 8.88959 3.34905 8.84433 3.37794C8.79912 3.4068 8.76432 3.44732 8.74327 3.49389L8.7432 3.49403L3.85437 14.2938C3.85436 14.2938 3.85436 14.2939 3.85435 14.2939C3.83398 14.3389 3.82705 14.3883 3.834 14.4365C3.84096 14.4848 3.86168 14.5309 3.8946 14.5693C3.92756 14.6078 3.97153 14.6372 4.02192 14.6532C4.07235 14.6692 4.12654 14.671 4.17808 14.6583L4.17828 14.6583L8.05365 13.7072V8.40009C8.05365 8.15056 8.15466 7.91252 8.33244 7.73798C8.51001 7.56364 8.74956 7.46677 8.99809 7.46677C9.24661 7.46677 9.48617 7.56364 9.66373 7.73798C9.84151 7.91252 9.94253 8.15056 9.94253 8.40009V13.7072L13.8183 14.6582C13.8699 14.6708 13.924 14.669 13.9744 14.6529L14.0756 14.9705L13.9744 14.6529C14.0247 14.6369 14.0686 14.6075 14.1016 14.5691C14.1344 14.5306 14.1551 14.4846 14.1621 14.4363L14.492 14.4838L14.1621 14.4363C14.169 14.3881 14.1621 14.3389 14.1418 14.2939L9.25297 3.49403ZM9.25297 3.49403L14.1418 14.2937L9.25297 3.49403Z" fill="#0284FE" stroke="white" stroke-width="0.666667"/>
</svg>
