<svg width="24" height="24" viewBox="0 0 24 24" fill="none" xmlns="http://www.w3.org/2000/svg">
<path d="M21.6 2.4H19.2V1.2C19.2 0.88174 19.0736 0.576515 18.8485 0.351472C18.6235 0.126428 18.3183 0 18 0C17.6817 0 17.3765 0.126428 17.1515 0.351472C16.9264 0.576515 16.8 0.88174 16.8 1.2V2.4H13.2V1.2C13.2 0.88174 13.0736 0.576515 12.8485 0.351472C12.6235 0.126428 12.3183 0 12 0C11.6817 0 11.3765 0.126428 11.1515 0.351472C10.9264 0.576515 10.8 0.88174 10.8 1.2V2.4H7.2V1.2C7.2 0.88174 7.07357 0.576515 6.84853 0.351472C6.62348 0.126428 6.31826 0 6 0C5.68174 0 5.37652 0.126428 5.15147 0.351472C4.92643 0.576515 4.8 0.88174 4.8 1.2V2.4H2.4C1.76348 2.4 1.15303 2.65286 0.702944 3.10294C0.252856 3.55303 0 4.16348 0 4.8V21.6C0 22.2365 0.252856 22.847 0.702944 23.2971C1.15303 23.7471 1.76348 24 2.4 24H21.6C22.2365 24 22.847 23.7471 23.2971 23.2971C23.7471 22.847 24 22.2365 24 21.6V4.8C24 4.16348 23.7471 3.55303 23.2971 3.10294C22.847 2.65286 22.2365 2.4 21.6 2.4ZM4.8 4.8C4.8 5.11826 4.92643 5.42348 5.15147 5.64853C5.37652 5.87357 5.68174 6 6 6C6.31826 6 6.62348 5.87357 6.84853 5.64853C7.07357 5.42348 7.2 5.11826 7.2 4.8H10.8C10.8 5.11826 10.9264 5.42348 11.1515 5.64853C11.3765 5.87357 11.6817 6 12 6C12.3183 6 12.6235 5.87357 12.8485 5.64853C13.0736 5.42348 13.2 5.11826 13.2 4.8H16.8C16.8 5.11826 16.9264 5.42348 17.1515 5.64853C17.3765 5.87357 17.6817 6 18 6C18.3183 6 18.6235 5.87357 18.8485 5.64853C19.0736 5.42348 19.2 5.11826 19.2 4.8H21.6V7.2H2.4V4.8H4.8ZM2.4 21.6V9.6H21.6V21.6H2.4Z" fill="#666C79"/>
<path d="M6.6 12H5.4C5.06863 12 4.8 12.2686 4.8 12.6V13.8C4.8 14.1314 5.06863 14.4 5.4 14.4H6.6C6.93137 14.4 7.2 14.1314 7.2 13.8V12.6C7.2 12.2686 6.93137 12 6.6 12Z" fill="#666C79"/>
<path d="M6.6 16.8H5.4C5.06863 16.8 4.8 17.0686 4.8 17.4V18.6C4.8 18.9314 5.06863 19.2 5.4 19.2H6.6C6.93137 19.2 7.2 18.9314 7.2 18.6V17.4C7.2 17.0686 6.93137 16.8 6.6 16.8Z" fill="#666C79"/>
<path d="M12.6 12H11.4C11.0686 12 10.8 12.2686 10.8 12.6V13.8C10.8 14.1314 11.0686 14.4 11.4 14.4H12.6C12.9314 14.4 13.2 14.1314 13.2 13.8V12.6C13.2 12.2686 12.9314 12 12.6 12Z" fill="#666C79"/>
<path d="M12.6 16.8H11.4C11.0686 16.8 10.8 17.0686 10.8 17.4V18.6C10.8 18.9314 11.0686 19.2 11.4 19.2H12.6C12.9314 19.2 13.2 18.9314 13.2 18.6V17.4C13.2 17.0686 12.9314 16.8 12.6 16.8Z" fill="#666C79"/>
<path d="M18.6 12H17.4C17.0686 12 16.8 12.2686 16.8 12.6V13.8C16.8 14.1314 17.0686 14.4 17.4 14.4H18.6C18.9314 14.4 19.2 14.1314 19.2 13.8V12.6C19.2 12.2686 18.9314 12 18.6 12Z" fill="#666C79"/>
<path d="M18.6 16.8H17.4C17.0686 16.8 16.8 17.0686 16.8 17.4V18.6C16.8 18.9314 17.0686 19.2 17.4 19.2H18.6C18.9314 19.2 19.2 18.9314 19.2 18.6V17.4C19.2 17.0686 18.9314 16.8 18.6 16.8Z" fill="#666C79"/>
</svg>
