<svg width="48" height="48" viewBox="0 0 48 48" fill="none" xmlns="http://www.w3.org/2000/svg">
<path d="M0 8C0 3.58172 3.58172 0 8 0H40C44.4183 0 48 3.58172 48 8V40C48 44.4183 44.4183 48 40 48H8C3.58172 48 0 44.4183 0 40V8Z" fill="#FF922E" fill-opacity="0.15"/>
<g clip-path="url(#clip0_1497_137685)">
<path d="M36 16.8C36 16.1635 35.7471 15.553 35.2971 15.1029C34.847 14.6529 34.2365 14.4 33.6 14.4H31.2V13.2C31.2 12.8817 31.0736 12.5765 30.8485 12.3515C30.6235 12.1264 30.3183 12 30 12C29.6817 12 29.3765 12.1264 29.1515 12.3515C28.9264 12.5765 28.8 12.8817 28.8 13.2V14.4H25.2V13.2C25.2 12.8817 25.0736 12.5765 24.8485 12.3515C24.6235 12.1264 24.3183 12 24 12C23.6817 12 23.3765 12.1264 23.1515 12.3515C22.9264 12.5765 22.8 12.8817 22.8 13.2V14.4H19.2V13.2C19.2 12.8817 19.0736 12.5765 18.8485 12.3515C18.6235 12.1264 18.3183 12 18 12C17.6817 12 17.3765 12.1264 17.1515 12.3515C16.9264 12.5765 16.8 12.8817 16.8 13.2V14.4H14.4C13.7635 14.4 13.153 14.6529 12.7029 15.1029C12.2529 15.553 12 16.1635 12 16.8V19.2H36V16.8Z" fill="#FF922E"/>
<path d="M12 33.6C12 34.2365 12.2529 34.847 12.7029 35.2971C13.153 35.7471 13.7635 36 14.4 36H33.6C34.2365 36 34.847 35.7471 35.2971 35.2971C35.7471 34.847 36 34.2365 36 33.6V21.6H12V33.6ZM18 24H30C30.3183 24 30.6235 24.1264 30.8485 24.3515C31.0736 24.5765 31.2 24.8817 31.2 25.2C31.2 25.5183 31.0736 25.8235 30.8485 26.0485C30.6235 26.2736 30.3183 26.4 30 26.4H18C17.6817 26.4 17.3765 26.2736 17.1515 26.0485C16.9264 25.8235 16.8 25.5183 16.8 25.2C16.8 24.8817 16.9264 24.5765 17.1515 24.3515C17.3765 24.1264 17.6817 24 18 24Z" fill="#FF922E"/>
</g>
<defs>
<clipPath id="clip0_1497_137685">
<rect width="24" height="24" fill="white" transform="translate(12 12)"/>
</clipPath>
</defs>
</svg>
