<svg width="16" height="16" viewBox="0 0 16 16" fill="none" xmlns="http://www.w3.org/2000/svg">
<g id="copy-02">
<path id="Vector" d="M4.49967 9.90525C4.49961 9.04245 4.49956 8.25118 4.58627 7.60625C4.68181 6.89565 4.90657 6.14401 5.5248 5.52578C6.14303 4.90754 6.89467 4.68278 7.60527 4.58725C8.25021 4.50054 9.04147 4.50059 9.90427 4.50065H11.3951C11.5924 4.50065 11.6911 4.50065 11.7504 4.43678C11.8097 4.3729 11.8027 4.27678 11.7885 4.08454C11.7762 3.91762 11.7605 3.75993 11.7404 3.61094C11.6542 2.97124 11.4818 2.43965 11.1142 1.99174C10.9826 1.8314 10.8356 1.68437 10.6753 1.55278C10.2026 1.1649 9.63681 0.994351 8.94954 0.913104C8.28001 0.833971 7.43381 0.833978 6.36563 0.833984H6.3004C5.23223 0.833978 4.38599 0.833971 3.71651 0.913104C3.02919 0.994344 2.46339 1.1649 1.99076 1.55278C1.83042 1.68437 1.68339 1.8314 1.55181 1.99174C1.16393 2.46437 0.993375 3.03017 0.912128 3.71748C0.832995 4.38696 0.833001 5.2332 0.833008 6.30137V6.36659C0.833001 7.43478 0.832995 8.28098 0.912128 8.95045C0.993368 9.63778 1.16393 10.2036 1.55181 10.6762C1.68339 10.8366 1.83042 10.9836 1.99076 11.1152C2.43867 11.4828 2.97027 11.6552 3.60997 11.7414C3.75895 11.7614 3.91665 11.7772 4.08357 11.7895C4.27581 11.8037 4.37193 11.8107 4.4358 11.7514C4.49967 11.6921 4.49967 11.5934 4.49967 11.3961V9.90525Z" fill="#666C79"/>
<path id="Vector_2" d="M7.74892 6.28771L7.74893 6.28771C7.82802 6.27734 7.88374 6.20479 7.87338 6.12572C7.86301 6.04668 7.79052 5.99093 7.71135 6.0013L7.74892 6.28771ZM7.74892 6.28771C7.27975 6.34924 6.96374 6.46208 6.72347 6.65969L7.74892 6.28771ZM6.00296 7.40492L6.00295 7.40494C5.98724 7.48316 6.03794 7.5593 6.11609 7.57499C6.19424 7.59068 6.27041 7.54007 6.28618 7.46183L6.00296 7.40492ZM6.00296 7.40492C6.08542 6.99436 6.24223 6.68151 6.53987 6.43666M6.00296 7.40492L6.53987 6.43666M7.87337 14.5409L7.87338 14.5409C7.88374 14.4619 7.82802 14.3893 7.74892 14.379C7.27973 14.3174 6.96373 14.2046 6.72345 14.007C6.49053 13.8154 6.35943 13.5695 6.2862 13.2049L7.87337 14.5409ZM7.87337 14.5409C7.86301 14.62 7.79052 14.6758 7.71132 14.6654C7.21631 14.6005 6.83926 14.4763 6.53987 14.23L6.53986 14.23M7.87337 14.5409L6.53986 14.23M6.53986 14.23C6.24224 13.9852 6.08542 13.6723 6.00296 13.2617L6.00295 13.2617M6.53986 14.23L6.00295 13.2617M6.00295 13.2617C5.98724 13.1835 6.03794 13.1074 6.11609 13.0917C6.19424 13.076 6.27041 13.1266 6.28618 13.2048L6.00295 13.2617ZM6.53987 6.43666C6.83924 6.19038 7.21627 6.06623 7.71133 6.0013L6.53987 6.43666ZM12.7934 6.12572L12.4427 6.07973L12.7934 6.12572C12.8038 6.04664 12.8763 5.99093 12.9554 6.0013C13.4505 6.06622 13.8275 6.19039 14.1269 6.43665L14.1269 6.43667C14.4245 6.68151 14.5813 6.99434 14.6638 7.40491L14.6638 7.40499C14.6795 7.48317 14.6289 7.55929 14.5507 7.57499C14.4725 7.5907 14.3963 7.53998 14.3806 7.46183C14.3074 7.09705 14.1761 6.85127 13.9434 6.65978L13.9433 6.65971C13.7031 6.46207 13.387 6.34923 12.9178 6.28771L12.9178 6.28771C12.8388 6.27735 12.783 6.20487 12.7934 6.12572ZM14.6638 13.2617L14.6638 13.2618C14.5813 13.6723 14.4245 13.9852 14.1269 14.23L14.1269 14.23C13.8275 14.4763 13.4504 14.6005 12.9554 14.6654C12.8763 14.6757 12.8038 14.6201 12.7934 14.5409L12.7934 14.5409C12.783 14.4618 12.8388 14.3893 12.9178 14.379C13.387 14.3174 13.7031 14.2046 13.9433 14.007L13.9434 14.0069C14.1761 13.8154 14.3074 13.5696 14.3806 13.2048C14.3963 13.1267 14.4724 13.076 14.5507 13.0917C14.6289 13.1074 14.6795 13.1835 14.6638 13.2617ZM6.72345 6.65971C6.49054 6.85126 6.35943 7.09714 6.2862 7.46174L6.72345 6.65971ZM9.22227 6.14451C9.22227 6.06476 9.28692 6.00008 9.36673 6.00008H11.3001C11.3798 6.00008 11.4445 6.06473 11.4445 6.14451C11.4445 6.22428 11.3798 6.28894 11.3001 6.28894H9.36673C9.28691 6.28894 9.22227 6.22425 9.22227 6.14451ZM6.14456 9.22227C6.22435 9.22227 6.289 9.28696 6.289 9.36667V11.3C6.289 11.3797 6.22435 11.4444 6.14456 11.4444C6.06478 11.4444 6.00013 11.3797 6.00013 11.3V9.36667C6.00013 9.28695 6.06478 9.22227 6.14456 9.22227ZM14.5222 9.22227C14.602 9.22227 14.6667 9.28698 14.6667 9.36667V11.3C14.6667 11.3797 14.602 11.4444 14.5222 11.4444C14.4425 11.4444 14.3778 11.3797 14.3778 11.3V9.36667C14.3778 9.28695 14.4425 9.22227 14.5222 9.22227ZM9.22227 14.5221C9.22227 14.4424 9.28691 14.3777 9.36673 14.3777H11.3001C11.3798 14.3777 11.4445 14.4424 11.4445 14.5221C11.4445 14.602 11.3798 14.6666 11.3001 14.6666H9.36673C9.28694 14.6666 9.22227 14.6019 9.22227 14.5221Z" fill="#666C79" stroke="#666C79"/>
</g>
</svg>
