<svg width="16" height="12" viewBox="0 0 16 12" fill="none" xmlns="http://www.w3.org/2000/svg">
<path d="M14.4 12H1.6C1.17565 12 0.768687 11.8194 0.468629 11.4979C0.168571 11.1764 0 10.7404 0 10.2857V1.71429C0 1.25963 0.168571 0.823594 0.468629 0.502103C0.768687 0.180612 1.17565 0 1.6 0H14.4C14.8243 0 15.2313 0.180612 15.5314 0.502103C15.8314 0.823594 16 1.25963 16 1.71429V10.2857C16 10.7404 15.8314 11.1764 15.5314 11.4979C15.2313 11.8194 14.8243 12 14.4 12ZM1.6 1.71429V10.2857H14.4V1.71429H1.6Z" fill="#0D1526"/>
<path d="M4.8 8.57143H3.2C2.98783 8.57143 2.78434 8.48112 2.63431 8.32038C2.48429 8.15963 2.4 7.94161 2.4 7.71429C2.4 7.48696 2.48429 7.26894 2.63431 7.10819C2.78434 6.94745 2.98783 6.85714 3.2 6.85714H4.8C5.01217 6.85714 5.21566 6.94745 5.36569 7.10819C5.51571 7.26894 5.6 7.48696 5.6 7.71429C5.6 7.94161 5.51571 8.15963 5.36569 8.32038C5.21566 8.48112 5.01217 8.57143 4.8 8.57143Z" fill="#0D1526"/>
<path d="M11.2 8.57143H7.2C6.98783 8.57143 6.78434 8.48112 6.63432 8.32038C6.48429 8.15963 6.4 7.94161 6.4 7.71429C6.4 7.48696 6.48429 7.26894 6.63432 7.10819C6.78434 6.94745 6.98783 6.85714 7.2 6.85714H11.2C11.4122 6.85714 11.6157 6.94745 11.7657 7.10819C11.9157 7.26894 12 7.48696 12 7.71429C12 7.94161 11.9157 8.15963 11.7657 8.32038C11.6157 8.48112 11.4122 8.57143 11.2 8.57143Z" fill="#0D1526"/>
<path d="M15.2 5.14286H0.8C0.587827 5.14286 0.384344 5.05255 0.234315 4.89181C0.0842854 4.73106 0 4.51304 0 4.28571C0 4.05839 0.0842854 3.84037 0.234315 3.67962C0.384344 3.51888 0.587827 3.42857 0.8 3.42857H15.2C15.4122 3.42857 15.6157 3.51888 15.7657 3.67962C15.9157 3.84037 16 4.05839 16 4.28571C16 4.51304 15.9157 4.73106 15.7657 4.89181C15.6157 5.05255 15.4122 5.14286 15.2 5.14286Z" fill="#0D1526"/>
</svg>
