<svg width="12" height="7" viewBox="0 0 12 7" fill="none" xmlns="http://www.w3.org/2000/svg">
<path d="M6.01679 6.5C5.73038 6.49994 5.45572 6.39476 5.25323 6.2076L0.933227 2.21577C0.830076 2.12372 0.747799 2.0136 0.691197 1.89184C0.634596 1.77009 0.604803 1.63914 0.603556 1.50663C0.60231 1.37412 0.629636 1.24271 0.683939 1.12006C0.738243 0.99742 0.818436 0.885996 0.91984 0.792295C1.02124 0.698595 1.14183 0.624493 1.27456 0.574315C1.40728 0.524137 1.5495 0.498886 1.6929 0.500038C1.8363 0.501189 1.97802 0.528719 2.10978 0.581021C2.24155 0.633323 2.36072 0.70935 2.46035 0.804665L6.01679 4.09093L9.57323 0.804665C9.77692 0.622879 10.0497 0.522291 10.3329 0.524565C10.6161 0.526838 10.8869 0.631792 11.0872 0.816821C11.2874 1.00185 11.401 1.25215 11.4035 1.51381C11.4059 1.77547 11.2971 2.02756 11.1003 2.21577L6.78035 6.2076C6.57785 6.39476 6.3032 6.49994 6.01679 6.5Z" fill="white"/>
</svg>
