<svg width="16" height="16" viewBox="0 0 16 16" fill="none" xmlns="http://www.w3.org/2000/svg">
<g id="edit-02">
<path id="Vector" d="M12.702 1.15838C11.8988 0.712465 10.9248 0.727185 10.1351 1.19686C9.88437 1.34598 9.65291 1.56814 9.36151 1.87736C9.23751 2.00886 9.17557 2.07461 9.17677 2.15572C9.17797 2.23682 9.24251 2.30138 9.37164 2.43049L13.6325 6.69132C13.7643 6.82318 13.8302 6.88912 13.9128 6.88925C13.9954 6.88945 14.0608 6.82465 14.1915 6.69505C14.472 6.41694 14.6754 6.19146 14.8137 5.94869C15.2694 5.14902 15.2835 4.16583 14.8512 3.35309C14.6709 3.01432 14.3674 2.70444 13.9138 2.24142L13.7911 2.11603C13.3391 1.65402 13.0352 1.34336 12.702 1.15838Z" fill="#666C79"/>
<path id="Vector_2" d="M12.6548 8.17727C12.793 8.0442 12.862 7.97767 12.8628 7.89373C12.8636 7.8098 12.7958 7.742 12.6602 7.60633L8.48809 3.43428C8.34982 3.29599 8.28069 3.22684 8.19549 3.22855C8.11029 3.23025 8.04395 3.30211 7.91129 3.44583L2.76069 9.02627C2.01399 9.83507 1.55633 10.3307 1.28843 10.9474C1.02104 11.5628 0.968388 12.2399 0.882295 13.3471L0.882148 13.3491C0.881988 13.351 0.825155 14.0781 0.833928 14.2356C0.843862 14.4139 0.886322 14.6306 1.05179 14.8184C1.21876 15.0079 1.42981 15.076 1.60749 15.1057C1.76205 15.1315 2.45817 15.1496 2.45957 15.1496C3.72434 15.1829 4.50618 15.2035 5.22516 14.9227C5.94312 14.6423 6.5105 14.0956 7.43109 13.2086L12.6548 8.17727Z" fill="#666C79"/>
</g>
</svg>
