<svg width="10" height="13" viewBox="0 0 10 13" fill="none" xmlns="http://www.w3.org/2000/svg">
<path d="M8.91673 10.7C8.75914 10.7 8.608 10.7632 8.49656 10.8757C8.38513 10.9883 8.32252 11.1409 8.32252 11.3L1.19199 11.3L1.19199 4.70001L2.97462 4.70001C3.28981 4.70001 3.59209 4.57358 3.81496 4.34853C4.03784 4.12349 4.16304 3.81827 4.16304 3.50001L4.16304 1.70001L8.32252 1.70001L8.32252 4.10001C8.32252 4.25914 8.38513 4.41175 8.49656 4.52427C8.608 4.63679 8.75914 4.70001 8.91673 4.70001C9.07433 4.70001 9.22547 4.63679 9.3369 4.52427C9.44834 4.41175 9.51094 4.25914 9.51094 4.10001L9.51094 1.70001C9.51587 1.38718 9.39771 1.08515 9.18238 0.860188C8.96705 0.635222 8.67213 0.50569 8.36233 0.500009L3.46722 0.500009C3.23294 0.499256 3.00083 0.545488 2.78438 0.636023C2.56793 0.726557 2.37144 0.859592 2.20631 1.02741L0.525878 2.72421C0.35968 2.89095 0.227929 3.08936 0.138268 3.30792C0.0486064 3.52648 0.00282051 3.76084 0.00356623 3.99741L0.00356623 11.3C-0.00136311 11.6128 0.1168 11.9149 0.332132 12.1398C0.547464 12.3648 0.842379 12.4943 1.15218 12.5L8.32252 12.5C8.63771 12.5 8.93999 12.3736 9.16286 12.1485C9.38574 11.9235 9.51094 11.6183 9.51094 11.3C9.51094 11.1409 9.44834 10.9883 9.3369 10.8757C9.22547 10.7632 9.07433 10.7 8.91673 10.7ZM2.97462 1.94841L2.97462 3.50001L1.43799 3.50001L2.97462 1.94841Z" fill="white"/>
<path d="M9.82944 7.2758L8.18466 5.61501C8.12985 5.5577 8.06428 5.51199 7.99179 5.48054C7.91929 5.4491 7.84132 5.43255 7.76242 5.43186C7.68352 5.43116 7.60527 5.44634 7.53225 5.47651C7.45922 5.50668 7.39288 5.55123 7.33708 5.60757C7.28129 5.6639 7.23717 5.7309 7.20729 5.80463C7.17742 5.87837 7.16238 5.95738 7.16307 6.03705C7.16375 6.11671 7.18014 6.19545 7.21129 6.26865C7.24243 6.34185 7.2877 6.40806 7.34445 6.4634L7.97431 7.1L4.16304 7.1C4.00545 7.1 3.85431 7.16322 3.74287 7.27574C3.63144 7.38826 3.56883 7.54087 3.56883 7.7C3.56883 7.85913 3.63144 8.01175 3.74287 8.12427C3.85431 8.23679 4.00545 8.3 4.16304 8.3L7.97431 8.3L7.34445 8.9366C7.2877 8.99195 7.24243 9.05816 7.21129 9.13136C7.18014 9.20456 7.16375 9.28329 7.16307 9.36296C7.16238 9.44263 7.17742 9.52164 7.20729 9.59538C7.23717 9.66911 7.28129 9.7361 7.33708 9.79244C7.39288 9.84877 7.45922 9.89333 7.53225 9.9235C7.60527 9.95366 7.68352 9.96884 7.76242 9.96815C7.84132 9.96746 7.91929 9.95091 7.99179 9.91946C8.06428 9.88802 8.12985 9.84231 8.18466 9.785L9.82944 8.1242C9.94084 8.01169 10.0034 7.8591 10.0034 7.7C10.0034 7.54091 9.94084 7.38832 9.82944 7.2758Z" fill="white"/>
</svg>
