<svg width="24" height="24" viewBox="0 0 24 24" fill="none" xmlns="http://www.w3.org/2000/svg">
<path d="M8.07162 1H2.17837C1.52758 1 1 1.52758 1 2.17837V8.07162C1 8.72242 1.52758 9.25 2.17837 9.25H8.07162C8.72242 9.25 9.25 8.72242 9.25 8.07162V2.17837C9.25 1.52758 8.72242 1 8.07162 1Z" stroke="#666C79" stroke-width="2" stroke-linecap="round" stroke-linejoin="round"/>
<path d="M21.8216 1H15.9284C15.2776 1 14.75 1.52758 14.75 2.17837V8.07162C14.75 8.72242 15.2776 9.25 15.9284 9.25H21.8216C22.4724 9.25 23 8.72242 23 8.07162V2.17837C23 1.52758 22.4724 1 21.8216 1Z" stroke="#666C79" stroke-width="2" stroke-linecap="round" stroke-linejoin="round"/>
<path d="M8.07162 14.75H2.17837C1.52758 14.75 1 15.2776 1 15.9284V21.8216C1 22.4724 1.52758 23 2.17837 23H8.07162C8.72242 23 9.25 22.4724 9.25 21.8216V15.9284C9.25 15.2776 8.72242 14.75 8.07162 14.75Z" stroke="#666C79" stroke-width="2" stroke-linecap="round" stroke-linejoin="round"/>
<path d="M21.8216 14.75H15.9284C15.2776 14.75 14.75 15.2776 14.75 15.9284V21.8216C14.75 22.4724 15.2776 23 15.9284 23H21.8216C22.4724 23 23 22.4724 23 21.8216V15.9284C23 15.2776 22.4724 14.75 21.8216 14.75Z" stroke="#666C79" stroke-width="2" stroke-linecap="round" stroke-linejoin="round"/>
</svg>
