<svg width="30" height="42" viewBox="0 0 30 42" fill="none" xmlns="http://www.w3.org/2000/svg">
<path d="M19.5505 8.23362C19.5483 5.52931 19.5075 4.12856 18.7202 3.16944C18.5682 2.98421 18.3984 2.81438 18.2131 2.66237C17.2013 1.83203 15.698 1.83203 12.6913 1.83203C9.68469 1.83203 8.18137 1.83203 7.16953 2.66237C6.98429 2.81437 6.81445 2.98421 6.66242 3.16944C5.83203 4.18121 5.83203 5.68443 5.83203 8.69087C5.83203 11.6973 5.83203 13.2005 6.66242 14.2123C6.81444 14.3975 6.98429 14.5673 7.16953 14.7193C8.12872 15.5066 9.52957 15.5474 12.234 15.5496M16.8598 8.27344L19.5783 8.23438M16.8469 20.1688L19.5655 20.1297M24.1411 12.8545L24.1155 15.5676M12.26 12.867L12.2344 15.58M14.5305 8.27344C13.7672 8.41017 12.5419 8.55081 12.26 10.129M21.8706 20.1297C22.636 20.0047 23.8634 19.8829 24.1694 18.3092M21.8706 8.27344C22.634 8.41017 23.8593 8.55081 24.1411 10.129M14.5422 20.1285C13.7788 19.9922 12.5534 19.8522 12.2707 18.2741" stroke="#0284FE" stroke-width="1.5" stroke-linecap="round" stroke-linejoin="round"/>
<path d="M8.07955 32H7.02273C6.96023 31.696 6.85085 31.429 6.6946 31.1989C6.54119 30.9688 6.35369 30.7756 6.1321 30.6193C5.91335 30.4602 5.67045 30.3409 5.40341 30.2614C5.13636 30.1818 4.85795 30.142 4.56818 30.142C4.03977 30.142 3.56108 30.2756 3.1321 30.5426C2.70597 30.8097 2.36648 31.2031 2.11364 31.723C1.86364 32.2429 1.73864 32.8807 1.73864 33.6364C1.73864 34.392 1.86364 35.0298 2.11364 35.5497C2.36648 36.0696 2.70597 36.4631 3.1321 36.7301C3.56108 36.9972 4.03977 37.1307 4.56818 37.1307C4.85795 37.1307 5.13636 37.0909 5.40341 37.0114C5.67045 36.9318 5.91335 36.8139 6.1321 36.6577C6.35369 36.4986 6.54119 36.304 6.6946 36.0739C6.85085 35.8409 6.96023 35.5739 7.02273 35.2727H8.07955C8 35.7187 7.85511 36.1179 7.64489 36.4702C7.43466 36.8224 7.1733 37.1222 6.8608 37.3693C6.5483 37.6136 6.19744 37.7997 5.80824 37.9276C5.42188 38.0554 5.00852 38.1193 4.56818 38.1193C3.82386 38.1193 3.16193 37.9375 2.58239 37.5739C2.00284 37.2102 1.54688 36.6932 1.21449 36.0227C0.882102 35.3523 0.715909 34.5568 0.715909 33.6364C0.715909 32.7159 0.882102 31.9205 1.21449 31.25C1.54688 30.5795 2.00284 30.0625 2.58239 29.6989C3.16193 29.3352 3.82386 29.1534 4.56818 29.1534C5.00852 29.1534 5.42188 29.2173 5.80824 29.3452C6.19744 29.473 6.5483 29.6605 6.8608 29.9077C7.1733 30.152 7.43466 30.4503 7.64489 30.8026C7.85511 31.152 8 31.5511 8.07955 32ZM12.31 38.1364C11.7191 38.1364 11.2006 37.9957 10.7546 37.7145C10.3114 37.4332 9.96484 37.0398 9.71484 36.5341C9.46768 36.0284 9.34411 35.4375 9.34411 34.7614C9.34411 34.0795 9.46768 33.4844 9.71484 32.9759C9.96484 32.4673 10.3114 32.0724 10.7546 31.7912C11.2006 31.5099 11.7191 31.3693 12.31 31.3693C12.9009 31.3693 13.418 31.5099 13.8612 31.7912C14.3072 32.0724 14.6538 32.4673 14.9009 32.9759C15.1509 33.4844 15.2759 34.0795 15.2759 34.7614C15.2759 35.4375 15.1509 36.0284 14.9009 36.5341C14.6538 37.0398 14.3072 37.4332 13.8612 37.7145C13.418 37.9957 12.9009 38.1364 12.31 38.1364ZM12.31 37.233C12.7589 37.233 13.1282 37.1179 13.418 36.8878C13.7077 36.6577 13.9222 36.3551 14.0614 35.9801C14.2006 35.6051 14.2702 35.1989 14.2702 34.7614C14.2702 34.3239 14.2006 33.9162 14.0614 33.5384C13.9222 33.1605 13.7077 32.8551 13.418 32.6222C13.1282 32.3892 12.7589 32.2727 12.31 32.2727C11.8612 32.2727 11.4918 32.3892 11.2021 32.6222C10.9123 32.8551 10.6978 33.1605 10.5586 33.5384C10.4194 33.9162 10.3498 34.3239 10.3498 34.7614C10.3498 35.1989 10.4194 35.6051 10.5586 35.9801C10.6978 36.3551 10.9123 36.6577 11.2021 36.8878C11.4918 37.1179 11.8612 37.233 12.31 37.233ZM16.8111 40.4545V31.4545H17.7827V32.4943H17.902C17.9759 32.3807 18.0781 32.2358 18.2088 32.0597C18.3423 31.8807 18.5327 31.7216 18.7798 31.5824C19.0298 31.4403 19.3679 31.3693 19.794 31.3693C20.3452 31.3693 20.831 31.5071 21.2514 31.7827C21.6719 32.0582 22 32.4489 22.2358 32.9545C22.4716 33.4602 22.5895 34.0568 22.5895 34.7443C22.5895 35.4375 22.4716 36.0384 22.2358 36.5469C22 37.0526 21.6733 37.4446 21.2557 37.723C20.8381 37.9986 20.3565 38.1364 19.8111 38.1364C19.3906 38.1364 19.054 38.0668 18.8011 37.9276C18.5483 37.7855 18.3537 37.625 18.2173 37.446C18.081 37.2642 17.9759 37.1136 17.902 36.9943H17.8168V40.4545H16.8111ZM17.7997 34.7273C17.7997 35.2216 17.8722 35.6577 18.017 36.0355C18.1619 36.4105 18.3736 36.7045 18.652 36.9176C18.9304 37.1278 19.2713 37.233 19.6747 37.233C20.0952 37.233 20.446 37.1222 20.7273 36.9006C21.0114 36.6761 21.2244 36.375 21.3665 35.9972C21.5114 35.6165 21.5838 35.1932 21.5838 34.7273C21.5838 34.267 21.5128 33.8523 21.3707 33.483C21.2315 33.1108 21.0199 32.8168 20.7358 32.6009C20.4545 32.3821 20.1009 32.2727 19.6747 32.2727C19.2656 32.2727 18.9219 32.3764 18.6435 32.5838C18.3651 32.7884 18.1548 33.0753 18.0128 33.4446C17.8707 33.8111 17.7997 34.2386 17.7997 34.7273ZM24.5369 40.4545C24.3665 40.4545 24.2145 40.4403 24.081 40.4119C23.9474 40.3864 23.8551 40.3608 23.804 40.3352L24.0597 39.4489C24.304 39.5114 24.5199 39.5341 24.7074 39.517C24.8949 39.5 25.0611 39.4162 25.206 39.2656C25.3537 39.1179 25.4886 38.8778 25.6108 38.5455L25.7983 38.0341L23.3778 31.4545H24.4688L26.2756 36.6705H26.3438L28.1506 31.4545H29.2415L26.4631 38.9545C26.3381 39.2926 26.1832 39.5724 25.9986 39.794C25.8139 40.0185 25.5994 40.1847 25.3551 40.2926C25.1136 40.4006 24.8409 40.4545 24.5369 40.4545Z" fill="#0284FE"/>
</svg>
