<svg width="24" height="16" viewBox="0 0 24 16" fill="none" xmlns="http://www.w3.org/2000/svg">
<path d="M2.25 0H0.75C0.335786 0 0 0.358172 0 0.8V2.4C0 2.84183 0.335786 3.2 0.75 3.2H2.25C2.66421 3.2 3 2.84183 3 2.4V0.8C3 0.358172 2.66421 0 2.25 0Z" fill="#666C79"/>
<path d="M2.25 6.4H0.75C0.335786 6.4 0 6.75817 0 7.2V8.8C0 9.24183 0.335786 9.6 0.75 9.6H2.25C2.66421 9.6 3 9.24183 3 8.8V7.2C3 6.75817 2.66421 6.4 2.25 6.4Z" fill="#666C79"/>
<path d="M2.25 12.8H0.75C0.335786 12.8 0 13.1582 0 13.6V15.2C0 15.6418 0.335786 16 0.75 16H2.25C2.66421 16 3 15.6418 3 15.2V13.6C3 13.1582 2.66421 12.8 2.25 12.8Z" fill="#666C79"/>
<path d="M22.5 3.2H7.5C7.10218 3.2 6.72064 3.03143 6.43934 2.73137C6.15804 2.43131 6 2.02435 6 1.6C6 1.17565 6.15804 0.768688 6.43934 0.468629C6.72064 0.168571 7.10218 0 7.5 0H22.5C22.8978 0 23.2794 0.168571 23.5607 0.468629C23.842 0.768688 24 1.17565 24 1.6C24 2.02435 23.842 2.43131 23.5607 2.73137C23.2794 3.03143 22.8978 3.2 22.5 3.2Z" fill="#666C79"/>
<path d="M22.5 9.6H7.5C7.10218 9.6 6.72064 9.43143 6.43934 9.13137C6.15804 8.83131 6 8.42435 6 8C6 7.57565 6.15804 7.16869 6.43934 6.86863C6.72064 6.56857 7.10218 6.4 7.5 6.4H22.5C22.8978 6.4 23.2794 6.56857 23.5607 6.86863C23.842 7.16869 24 7.57565 24 8C24 8.42435 23.842 8.83131 23.5607 9.13137C23.2794 9.43143 22.8978 9.6 22.5 9.6Z" fill="#666C79"/>
<path d="M22.5 16H7.5C7.10218 16 6.72064 15.8314 6.43934 15.5314C6.15804 15.2313 6 14.8243 6 14.4C6 13.9757 6.15804 13.5687 6.43934 13.2686C6.72064 12.9686 7.10218 12.8 7.5 12.8H22.5C22.8978 12.8 23.2794 12.9686 23.5607 13.2686C23.842 13.5687 24 13.9757 24 14.4C24 14.8243 23.842 15.2313 23.5607 15.5314C23.2794 15.8314 22.8978 16 22.5 16Z" fill="#666C79"/>
</svg>
