<svg width="16" height="16" viewBox="0 0 16 16" fill="none" xmlns="http://www.w3.org/2000/svg">
<g id="lock-outline" clip-path="url(#clip0_3516_157389)">
<g id="Vector">
<path d="M13.5001 5.6H12.1251V3.6C12.1251 2.64522 11.6905 1.72955 10.9169 1.05442C10.1433 0.379285 9.0941 0 8.00008 0C6.90606 0 5.85685 0.379285 5.08327 1.05442C4.30968 1.72955 3.87508 2.64522 3.87508 3.6V5.6H2.50008C2.01385 5.6 1.54754 5.76857 1.20372 6.06863C0.859902 6.36869 0.666748 6.77565 0.666748 7.2V14.4C0.666748 14.8243 0.859902 15.2313 1.20372 15.5314C1.54754 15.8314 2.01385 16 2.50008 16H13.5001C13.9863 16 14.4526 15.8314 14.7964 15.5314C15.1403 15.2313 15.3334 14.8243 15.3334 14.4V7.2C15.3334 6.77565 15.1403 6.36869 14.7964 6.06863C14.4526 5.76857 13.9863 5.6 13.5001 5.6ZM5.70842 3.6C5.70842 3.06957 5.94986 2.56086 6.37963 2.18579C6.8094 1.81071 7.39229 1.6 8.00008 1.6C8.60787 1.6 9.19076 1.81071 9.62053 2.18579C10.0503 2.56086 10.2917 3.06957 10.2917 3.6V5.6H5.70842V3.6ZM13.5001 14.4H2.50008V7.2H13.5001V14.4Z" fill="#1C64F2"/>
<path d="M8.00008 8.8C7.75697 8.8 7.52381 8.88429 7.3519 9.03432C7.17999 9.18434 7.08342 9.38783 7.08342 9.6V12C7.08342 12.2122 7.17999 12.4157 7.3519 12.5657C7.52381 12.7157 7.75697 12.8 8.00008 12.8C8.2432 12.8 8.47635 12.7157 8.64826 12.5657C8.82017 12.4157 8.91675 12.2122 8.91675 12V9.6C8.91675 9.38783 8.82017 9.18434 8.64826 9.03432C8.47635 8.88429 8.2432 8.8 8.00008 8.8Z" fill="#1C64F2"/>
</g>
</g>
<defs>
<clipPath id="clip0_3516_157389">
<rect width="16" height="16" fill="white"/>
</clipPath>
</defs>
</svg>
