<svg width="48" height="48" viewBox="0 0 48 48" fill="none" xmlns="http://www.w3.org/2000/svg">
<path d="M0 8C0 3.58172 3.58172 0 8 0H40C44.4183 0 48 3.58172 48 8V40C48 44.4183 44.4183 48 40 48H8C3.58172 48 0 44.4183 0 40V8Z" fill="#6C2BD9" fill-opacity="0.15"/>
<path d="M33.6 33H14.4C13.7635 33 13.153 32.7291 12.7029 32.2468C12.2529 31.7646 12 31.1106 12 30.4286V27.2143C12 26.8733 12.1264 26.5463 12.3515 26.3051C12.5765 26.064 12.8817 25.9286 13.2 25.9286C13.6774 25.9286 14.1352 25.7254 14.4728 25.3637C14.8104 25.002 15 24.5115 15 24C15 23.4885 14.8104 22.998 14.4728 22.6363C14.1352 22.2746 13.6774 22.0714 13.2 22.0714C12.8817 22.0714 12.5765 21.936 12.3515 21.6949C12.1264 21.4537 12 21.1267 12 20.7857V17.5714C12 16.8894 12.2529 16.2354 12.7029 15.7532C13.153 15.2709 13.7635 15 14.4 15H33.6C34.2365 15 34.847 15.2709 35.2971 15.7532C35.7471 16.2354 36 16.8894 36 17.5714V20.7857C36 21.1267 35.8736 21.4537 35.6485 21.6949C35.4235 21.936 35.1183 22.0714 34.8 22.0714C34.3226 22.0714 33.8648 22.2746 33.5272 22.6363C33.1896 22.998 33 23.4885 33 24C33 24.5115 33.1896 25.002 33.5272 25.3637C33.8648 25.7254 34.3226 25.9286 34.8 25.9286C35.1183 25.9286 35.4235 26.064 35.6485 26.3051C35.8736 26.5463 36 26.8733 36 27.2143V30.4286C36 31.1106 35.7471 31.7646 35.2971 32.2468C34.847 32.7291 34.2365 33 33.6 33Z" fill="#6C2BD9"/>
</svg>
