<svg width="16" height="16" viewBox="0 0 16 16" fill="none" xmlns="http://www.w3.org/2000/svg">
<g id="view">
<path id="Vector" d="M14.3623 7.36398L14.3631 7.36499L14.3985 7.41446L14.3989 7.41503C14.5754 7.66039 14.6663 7.80662 14.6663 8.00065C14.6663 8.19468 14.5754 8.34091 14.3989 8.58627L14.3985 8.58684L14.3631 8.63631L14.3623 8.63733C13.9069 9.27586 13.0979 10.2833 12.0118 11.1312C10.9256 11.9791 9.56271 12.6673 7.99967 12.6673C6.43666 12.6673 5.07368 11.9791 3.98757 11.1312C2.9015 10.2833 2.09237 9.27585 1.63704 8.63734L1.63624 8.63623L1.60076 8.58677L1.60043 8.58631C1.42398 8.34089 1.33301 8.19468 1.33301 8.00065C1.33301 7.80662 1.42398 7.66042 1.60043 7.41499L1.60076 7.41454L1.63624 7.36507L1.63703 7.36397C2.09238 6.72547 2.9015 5.71797 3.98757 4.87009C5.07368 4.02217 6.43666 3.33398 7.99967 3.33398C9.56271 3.33398 10.9256 4.02216 12.0118 4.87009C13.0979 5.71797 13.9069 6.72546 14.3623 7.36398ZM5.16634 8.00065C5.16634 9.56546 6.43487 10.834 7.99967 10.834C9.56448 10.834 10.833 9.56546 10.833 8.00065C10.833 6.43584 9.56448 5.16732 7.99967 5.16732C6.43487 5.16732 5.16634 6.43584 5.16634 8.00065Z" fill="#666C79" stroke="#666C79"/>
</g>
</svg>
